# xmcd CD database file generated by Grip 2.93
# 
# Track frame offsets:
#       150
#       13736
#       27862
#       40477
#       55046
#       69076
#       86979
#       97440
#       110593
#       113867
#       133903
#       152592
#       162953
#       176509
# 
# Disc length: 2514 seconds
# 
# Revision: 4
# Processed by: cddbd v1.4PL0 Copyright (c) Steve Scherf et al.
# Submitted via: Gronk 1.4
# 
DISCID=be09d00e
DTITLE=Frederique Spigt - Engel
DYEAR=1900
DGENRE=blues
TTITLE0=Schimmen
TTITLE1=Mijn hart kan dat niet aan
TTITLE2=Rood voor mijn ogen
TTITLE3=Alles draait om jou (2)
TTITLE4=Liefdeselixer (2)
TTITLE5=Engel (2)
TTITLE6=Vogel (2)
TTITLE7=Jij woont in mij (2)
TTITLE8=De latrine (2)
TTITLE9=Hemelse regen (2)
TTITLE10=Panoramagordijn (2)
TTITLE11=Tango op een dodenmars (2)
TTITLE12=Twee maal zoveel power (2)
TTITLE13=Tobias (2)
EXTD=
EXTT0=
EXTT1=
EXTT2=
EXTT3=
EXTT4=
EXTT5=
EXTT6=
EXTT7=
EXTT8=
EXTT9=
EXTT10=
EXTT11=
EXTT12=
EXTT13=
PLAYORDER=
